<?xml version="1.0" encoding="UTF-8"?>
<svg id="Layer_1" data-name="Layer 1" xmlns="http://www.w3.org/2000/svg" viewBox="0 0 422.79 109.15">
  <defs>
    <style>
      .cls-1 {
        fill: #f26137;
      }

      .cls-2 {
        fill: #fff;
      }

      .cls-3, .cls-4 {
        fill: #11588c;
      }

      .cls-5 {
        fill: #139f4a;
      }

      .cls-6 {
        fill: #2598d0;
      }

      .cls-4 {
        stroke: #11588c;
        stroke-miterlimit: 10;
        stroke-width: .25px;
      }
    </style>
  </defs>
  <rect class="cls-2" width="108.69" height="108.69"/>
  <path class="cls-4" d="M46.89,85.44c-2.65,.95-5.78,1.43-9.38,1.43-11.14,0-18.31-5.26-21.51-15.8l4.18-1.43c2.38,8.7,8.15,13.05,17.33,13.05,5.23,0,9.34-1.29,12.33-3.87,3.06-2.65,4.59-6.52,4.59-11.62,0-4.82-1.8-8.83-5.4-12.03-.95-.88-2.41-1.87-4.38-2.96-1.97-1.09-4.48-2.31-7.54-3.67-5.78-2.58-9.72-4.82-11.82-6.73-3.53-3.06-5.3-7.1-5.3-12.13s1.8-9.07,5.4-12.13c3.53-3.13,7.88-4.69,13.05-4.69,8.56,0,14.61,3.2,18.14,9.58l-3.97,1.73c-1.36-2.24-2.99-3.91-4.89-4.99-2.38-1.49-5.47-2.24-9.28-2.24-4.01,0-7.34,1.12-9.99,3.36-2.85,2.38-4.28,5.5-4.28,9.38,0,3.47,1.49,6.49,4.48,9.07,1.7,1.36,5.1,3.2,10.19,5.5,3.19,1.43,5.94,2.84,8.25,4.23,2.31,1.39,4.18,2.8,5.61,4.23,3.94,3.87,5.91,8.7,5.91,14.47,0,9.24-3.91,15.32-11.72,18.24Z"/>
  <path class="cls-4" d="M101.11,80.45c-4.22,4.21-9.36,6.2-15.49,6.32-7,.13-12.78-2.85-17.33-8.56v27.62h-4.18V43.96h4.18v7.95c4.35-5.71,10.13-8.71,17.33-8.56,5.98,.13,11.25,2.07,15.39,6.22,4.21,4.22,6.32,9.38,6.32,15.49s-2.07,11.25-6.22,15.39Zm-3.06-27.82c-3.47-3.47-7.61-5.2-12.44-5.2s-9.04,1.7-12.43,5.1c-3.47,3.46-5.2,7.64-5.2,12.54s1.73,8.97,5.2,12.43c3.46,3.47,7.61,5.2,12.43,5.2s9.04-1.7,12.44-5.1c3.46-3.46,5.2-7.64,5.2-12.54s-1.73-8.97-5.2-12.43Z"/>
  <path class="cls-4" d="M119.97,64.14c0,5.71,1.53,10.23,4.59,13.55,3.19,3.4,7.58,5.1,13.15,5.1,2.85,0,5.44-.47,7.75-1.43,2.92-1.22,5.54-3.7,7.85-7.44l3.77,1.73c-2.65,5.03-6.73,8.43-12.23,10.19-2.11,.68-4.48,1.02-7.13,1.02-6.32,0-11.52-2.07-15.59-6.22-4.15-4.14-6.22-9.34-6.22-15.59s2.04-11.52,6.12-15.59c4.14-4.14,9.38-6.22,15.7-6.22s11.42,1.94,15.49,5.81c4.14,3.87,6.22,8.9,6.22,15.09h-39.44Zm28.74-13.35c-3.19-2.31-6.86-3.47-11.01-3.47-8.7,0-14.41,4.28-17.12,12.84h34.15c-.68-3.87-2.69-7-6.01-9.38Z"/>
  <path class="cls-4" d="M191.52,86.87c-6.25,0-11.45-2.07-15.59-6.22-4.15-4.14-6.22-9.34-6.22-15.59s2.07-11.45,6.22-15.59c4.14-4.14,9.34-6.22,15.59-6.22,5.37,0,9.65,1.22,12.84,3.67v4.99l-2.65-1.73-2.85-1.53c-2.59-.88-5.03-1.33-7.34-1.33-5.23,0-9.48,1.63-12.74,4.89-3.33,3.33-4.99,7.61-4.99,12.84s1.66,9.41,4.99,12.74c3.33,3.33,7.58,4.99,12.74,4.99,4.89,0,9.17-1.63,12.84-4.89v5.2c-3.81,2.52-8.09,3.77-12.84,3.77Z"/>
  <path class="cls-4" d="M217.1,86.06V43.96h4.18v42.1h-4.18Z"/>
  <path class="cls-4" d="M253.69,14.81l-2.75-.31c-3.81,0-5.71,2.24-5.71,6.73v22.73h9.99v4.18h-9.99v37.92h-4.18V48.14h-5.71v-4.18h5.71V20.01c0-6.46,3.26-9.68,9.78-9.68,1.49,0,2.45,.07,2.85,.2,.82,0,1.73,.24,2.75,.71v4.18l-2.75-.61Z"/>
  <path class="cls-4" d="M275.25,109.02h-4.69l11.16-26.84-17.74-38.22h4.49l15.7,33.23,15.49-33.23h4.59l-28.99,65.06Z"/>
  <path class="cls-3" d="M52.72,0H0V51.75C1.75,23.68,24.47,1.28,52.72,0Z"/>
  <path class="cls-6" d="M83.46,108.69h25.24v-25.22c-5.39,10.94-14.29,19.84-25.24,25.22Z"/>
  <path class="cls-5" d="M108.69,30.91V0H61.56c20.72,.94,38.47,13.29,47.13,30.91Z"/>
  <path class="cls-1" d="M0,62.58v46.12H30.88C13.51,100.17,1.27,82.86,0,62.58Z"/>
  <circle class="cls-4" cx="219.19" cy="33.06" r="3.36"/>
  <g>
    <path class="cls-3" d="M130.84,103.05l1.89,.48c-.4,1.56-1.11,2.74-2.14,3.56s-2.29,1.23-3.78,1.23-2.8-.31-3.76-.94-1.7-1.54-2.21-2.73-.76-2.47-.76-3.84c0-1.49,.29-2.79,.85-3.9,.57-1.11,1.38-1.95,2.43-2.53s2.21-.86,3.47-.86c1.43,0,2.64,.36,3.61,1.09s1.66,1.75,2.04,3.08l-1.87,.44c-.33-1.04-.81-1.8-1.45-2.28s-1.43-.71-2.38-.71c-1.1,0-2.02,.26-2.76,.79s-1.26,1.24-1.56,2.12-.45,1.8-.45,2.75c0,1.22,.18,2.28,.53,3.19s.91,1.59,1.66,2.04,1.56,.67,2.43,.67c1.06,0,1.96-.31,2.7-.92s1.23-1.52,1.49-2.72Z"/>
    <path class="cls-3" d="M134.49,101.1c0-2.38,.64-4.24,1.91-5.58s2.92-2.02,4.94-2.02c1.32,0,2.51,.32,3.57,.95s1.87,1.51,2.43,2.64,.83,2.41,.83,3.84-.29,2.75-.88,3.9-1.42,2.01-2.49,2.6-2.23,.88-3.48,.88c-1.35,0-2.55-.33-3.61-.98s-1.87-1.54-2.41-2.67-.82-2.32-.82-3.57Zm1.95,.03c0,1.73,.46,3.08,1.39,4.08s2.09,1.49,3.49,1.49,2.6-.5,3.52-1.5,1.38-2.42,1.38-4.27c0-1.17-.2-2.18-.59-3.05s-.97-1.54-1.73-2.02-1.61-.72-2.55-.72c-1.34,0-2.5,.46-3.46,1.38s-1.45,2.46-1.45,4.61Z"/>
    <path class="cls-3" d="M150.54,108.07v-14.32h1.89v12.63h7.05v1.69h-8.95Z"/>
    <path class="cls-3" d="M161.67,108.07v-14.32h1.89v12.63h7.05v1.69h-8.95Z"/>
    <path class="cls-3" d="M172.91,108.07v-14.32h10.35v1.69h-8.46v4.38h7.92v1.68h-7.92v4.87h8.79v1.69h-10.68Z"/>
    <path class="cls-3" d="M196.42,103.05l1.89,.48c-.4,1.56-1.11,2.74-2.14,3.56s-2.29,1.23-3.78,1.23-2.8-.31-3.76-.94-1.7-1.54-2.21-2.73-.76-2.47-.76-3.84c0-1.49,.29-2.79,.85-3.9s1.38-1.95,2.43-2.53,2.21-.86,3.47-.86c1.43,0,2.64,.36,3.61,1.09s1.66,1.75,2.04,3.08l-1.87,.44c-.33-1.04-.81-1.8-1.45-2.28s-1.43-.71-2.38-.71c-1.1,0-2.02,.26-2.76,.79-.74,.53-1.26,1.24-1.56,2.12s-.45,1.8-.45,2.75c0,1.22,.18,2.28,.53,3.19s.91,1.59,1.66,2.04,1.56,.67,2.43,.67c1.06,0,1.96-.31,2.7-.92s1.23-1.52,1.49-2.72Z"/>
    <path class="cls-3" d="M204.29,108.07v-12.63h-4.72v-1.69h11.35v1.69h-4.74v12.63h-1.89Z"/>
    <path class="cls-3" d="M213.19,108.07v-14.32h1.89v14.32h-1.89Z"/>
    <path class="cls-3" d="M217.85,101.1c0-2.38,.64-4.24,1.91-5.58s2.92-2.02,4.94-2.02c1.32,0,2.51,.32,3.57,.95s1.87,1.51,2.43,2.64,.83,2.41,.83,3.84-.29,2.75-.88,3.9-1.42,2.01-2.49,2.6-2.23,.88-3.48,.88c-1.35,0-2.55-.33-3.61-.98s-1.87-1.54-2.41-2.67-.82-2.32-.82-3.57Zm1.95,.03c0,1.73,.46,3.08,1.39,4.08s2.09,1.49,3.49,1.49,2.6-.5,3.52-1.5,1.38-2.42,1.38-4.27c0-1.17-.2-2.18-.59-3.05s-.97-1.54-1.73-2.02-1.61-.72-2.55-.72c-1.34,0-2.5,.46-3.46,1.38s-1.45,2.46-1.45,4.61Z"/>
    <path class="cls-3" d="M233.96,108.07v-14.32h1.94l7.52,11.24v-11.24h1.82v14.32h-1.94l-7.52-11.25v11.25h-1.82Z"/>
    <path class="cls-3" d="M247.78,103.47l1.79-.16c.08,.72,.28,1.3,.59,1.76s.79,.83,1.44,1.11,1.38,.42,2.2,.42c.72,0,1.36-.11,1.91-.32s.96-.51,1.24-.88,.41-.78,.41-1.23-.13-.84-.39-1.18-.69-.62-1.29-.84c-.38-.15-1.23-.38-2.55-.7s-2.24-.61-2.76-.89c-.68-.36-1.19-.8-1.53-1.33s-.5-1.12-.5-1.78c0-.72,.21-1.4,.62-2.03s1.01-1.11,1.8-1.43,1.66-.49,2.63-.49c1.06,0,2,.17,2.81,.51s1.43,.84,1.87,1.51,.67,1.42,.7,2.26l-1.82,.14c-.1-.91-.43-1.59-.99-2.05s-1.39-.69-2.5-.69-1.98,.21-2.5,.63-.79,.93-.79,1.52c0,.51,.19,.94,.56,1.27,.36,.33,1.32,.67,2.86,1.02s2.6,.65,3.17,.91c.83,.38,1.45,.87,1.85,1.46s.6,1.27,.6,2.04-.22,1.48-.65,2.15-1.06,1.2-1.88,1.57-1.74,.56-2.76,.56c-1.3,0-2.38-.19-3.26-.57s-1.56-.95-2.06-1.7-.76-1.62-.79-2.57Z"/>
    <path class="cls-3" d="M299.76,103.05l1.89,.48c-.4,1.56-1.11,2.74-2.14,3.56s-2.29,1.23-3.78,1.23-2.8-.31-3.76-.94-1.7-1.54-2.21-2.73-.76-2.47-.76-3.84c0-1.49,.29-2.79,.85-3.9s1.38-1.95,2.43-2.53c1.05-.58,2.21-.86,3.47-.86,1.43,0,2.64,.36,3.61,1.09s1.66,1.75,2.04,3.08l-1.87,.44c-.33-1.04-.81-1.8-1.45-2.28s-1.43-.71-2.38-.71c-1.1,0-2.02,.26-2.76,.79s-1.26,1.24-1.56,2.12-.45,1.8-.45,2.75c0,1.22,.18,2.28,.53,3.19s.91,1.59,1.66,2.04,1.56,.67,2.43,.67c1.06,0,1.96-.31,2.7-.92s1.23-1.52,1.49-2.72Z"/>
    <path class="cls-3" d="M303.41,101.1c0-2.38,.64-4.24,1.91-5.58s2.92-2.02,4.94-2.02c1.32,0,2.51,.32,3.57,.95s1.87,1.51,2.43,2.64,.83,2.41,.83,3.84-.29,2.75-.88,3.9-1.42,2.01-2.49,2.6-2.23,.88-3.48,.88c-1.35,0-2.55-.33-3.61-.98s-1.87-1.54-2.41-2.67c-.55-1.13-.82-2.32-.82-3.57Zm1.95,.03c0,1.73,.46,3.08,1.39,4.08s2.09,1.49,3.49,1.49,2.6-.5,3.52-1.5,1.38-2.42,1.38-4.27c0-1.17-.2-2.18-.59-3.05s-.97-1.54-1.73-2.02-1.61-.72-2.55-.72c-1.34,0-2.5,.46-3.46,1.38s-1.45,2.46-1.45,4.61Z"/>
    <path class="cls-3" d="M319.53,108.07v-14.32h1.94l7.52,11.24v-11.24h1.82v14.32h-1.94l-7.52-11.25v11.25h-1.82Z"/>
    <path class="cls-3" d="M333.34,103.47l1.79-.16c.08,.72,.28,1.3,.59,1.76s.79,.83,1.44,1.11,1.38,.42,2.2,.42c.72,0,1.36-.11,1.91-.32s.96-.51,1.24-.88,.41-.78,.41-1.23-.13-.84-.39-1.18-.69-.62-1.29-.84c-.38-.15-1.23-.38-2.55-.7s-2.24-.61-2.76-.89c-.68-.36-1.19-.8-1.53-1.33s-.5-1.12-.5-1.78c0-.72,.21-1.4,.62-2.03s1.01-1.11,1.8-1.43,1.66-.49,2.63-.49c1.06,0,2,.17,2.81,.51s1.43,.84,1.87,1.51c.44,.66,.67,1.42,.7,2.26l-1.82,.14c-.1-.91-.43-1.59-.99-2.05s-1.39-.69-2.5-.69-1.98,.21-2.5,.63-.79,.93-.79,1.52c0,.51,.19,.94,.56,1.27,.36,.33,1.32,.67,2.86,1.02s2.6,.65,3.17,.91c.83,.38,1.45,.87,1.85,1.46s.6,1.27,.6,2.04-.22,1.48-.65,2.15-1.06,1.2-1.88,1.57-1.74,.56-2.76,.56c-1.3,0-2.38-.19-3.26-.57s-1.56-.95-2.06-1.7-.76-1.62-.79-2.57Z"/>
    <path class="cls-3" d="M346.75,101.1c0-2.38,.64-4.24,1.91-5.58s2.92-2.02,4.94-2.02c1.32,0,2.51,.32,3.57,.95s1.87,1.51,2.43,2.64,.83,2.41,.83,3.84-.29,2.75-.88,3.9-1.42,2.01-2.49,2.6-2.23,.88-3.48,.88c-1.35,0-2.55-.33-3.61-.98s-1.87-1.54-2.41-2.67-.82-2.32-.82-3.57Zm1.95,.03c0,1.73,.46,3.08,1.39,4.08s2.09,1.49,3.49,1.49,2.6-.5,3.52-1.5,1.38-2.42,1.38-4.27c0-1.17-.2-2.18-.59-3.05s-.97-1.54-1.73-2.02-1.61-.72-2.55-.72c-1.34,0-2.5,.46-3.46,1.38s-1.45,2.46-1.45,4.61Z"/>
    <path class="cls-3" d="M362.92,108.07v-14.32h6.35c1.28,0,2.25,.13,2.91,.39s1.19,.71,1.59,1.36,.6,1.37,.6,2.16c0,1.02-.33,1.87-.99,2.57s-1.67,1.14-3.05,1.33c.5,.24,.88,.48,1.14,.71,.55,.51,1.08,1.14,1.57,1.9l2.49,3.9h-2.38l-1.89-2.98c-.55-.86-1.01-1.52-1.37-1.97s-.68-.77-.96-.96-.57-.31-.86-.38c-.21-.05-.57-.07-1.05-.07h-2.2v6.36h-1.89Zm1.89-8h4.07c.87,0,1.54-.09,2.03-.27s.86-.47,1.11-.86,.38-.82,.38-1.28c0-.68-.25-1.23-.74-1.67s-1.27-.65-2.33-.65h-4.53v4.74Z"/>
    <path class="cls-3" d="M380.61,108.07v-12.63h-4.72v-1.69h11.35v1.69h-4.74v12.63h-1.89Z"/>
    <path class="cls-3" d="M389.51,108.07v-14.32h1.89v14.32h-1.89Z"/>
    <path class="cls-3" d="M404.14,93.76h1.89v8.27c0,1.44-.16,2.58-.49,3.43s-.91,1.54-1.76,2.07-1.96,.8-3.34,.8-2.44-.23-3.29-.69-1.46-1.13-1.83-2.01-.55-2.07-.55-3.59v-8.27h1.89v8.26c0,1.24,.12,2.16,.35,2.75s.63,1.04,1.19,1.36,1.25,.48,2.07,.48c1.39,0,2.39-.32,2.98-.95s.89-1.85,.89-3.64v-8.26Z"/>
    <path class="cls-3" d="M409.13,108.07v-14.32h2.85l3.39,10.14c.31,.94,.54,1.65,.68,2.12,.16-.52,.42-1.29,.76-2.29l3.43-9.96h2.55v14.32h-1.83v-11.98l-4.16,11.98h-1.71l-4.14-12.19v12.19h-1.83Z"/>
  </g>
</svg>